<?xml version="1.0" standalone="no"?><!DOCTYPE svg PUBLIC "-//W3C//DTD SVG 1.1//EN" "http://www.w3.org/Graphics/SVG/1.1/DTD/svg11.dtd"><svg t="1567997380934" class="icon" viewBox="0 0 1024 1024" version="1.1" xmlns="http://www.w3.org/2000/svg" p-id="2461" width="80" height="80" xmlns:xlink="http://www.w3.org/1999/xlink"><defs><style type="text/css"></style></defs><path d="M152.8 872.1c10.1 10.1 24.5 14.4 38.9 14.4h2.9l146.9-5.8c14.4 0 27.3-7.2 37.4-17.3L851.4 391c36-34.6 36-89.3 1.4-122.5L750.5 166.3c-33.1-33.1-87.9-33.1-122.5 0L155.6 638.8c-10.1 10.1-15.8 24.5-15.8 38.9L134 827.5v4.3c1.4 15.8 7.2 30.2 18.8 40.3z m523.6-677.5c6-6 13.5-9 21-9s15 3 21 9l106.3 106.3c11.9 11.9 11.9 29.9 0 41.9l-31.5 31.4L644.8 226l31.6-31.4zM603 267.9l148.2 148.2-392.3 392.2-148.2-148.1L603 267.9zM182.2 718.5l118.3 118.3-122.7 6 4.4-124.3z" p-id="2462" fill="#707070"></path></svg>