<?xml version="1.0" standalone="no"?><!DOCTYPE svg PUBLIC "-//W3C//DTD SVG 1.1//EN" "http://www.w3.org/Graphics/SVG/1.1/DTD/svg11.dtd"><svg t="1568281412995" class="icon" viewBox="0 0 1024 1024" version="1.1" xmlns="http://www.w3.org/2000/svg" p-id="2176" width="80" height="80" xmlns:xlink="http://www.w3.org/1999/xlink"><defs><style type="text/css"></style></defs><path d="M510.742357 873.646644 510.742357 873.646644c200.425775 0 362.904287-162.477488 362.904287-362.903264S711.168132 147.839093 510.742357 147.839093 147.839093 310.316581 147.839093 510.742357 310.316581 873.646644 510.742357 873.646644L510.742357 873.646644 510.742357 873.646644zM510.742357 957.393 510.742357 957.393c-246.678192 0-446.650643-199.972451-446.650643-446.650643S264.064164 64.091714 510.742357 64.091714s446.650643 199.972451 446.650643 446.650643S757.420549 957.393 510.742357 957.393L510.742357 957.393 510.742357 957.393zM371.164415 496.78446c38.542828 0 69.789483-31.245631 69.789483-69.789483s-31.245631-69.789483-69.789483-69.789483-69.789483 31.245631-69.789483 69.789483S332.620563 496.78446 371.164415 496.78446L371.164415 496.78446 371.164415 496.78446zM650.321322 496.78446c38.542828 0 69.789483-31.245631 69.789483-69.789483s-31.245631-69.789483-69.789483-69.789483-69.789483 31.245631-69.789483 69.789483S611.777471 496.78446 650.321322 496.78446L650.321322 496.78446 650.321322 496.78446zM510.742357 627.891474c72.724325 0 139.655713 46.888913 164.616198 111.663172 0 0 4.309142 28.013007 31.508621 28.013007 27.200502 0 27.200502-28.013007 27.200502-28.013007-26.250874-95.515401-118.956276-167.493735-223.325321-167.493735-104.507192 0-192.247512 71.783907-223.325321 167.493735 0 0-2.047636 28.013007 27.431769 28.013007 29.480428 0 32.18298-28.013007 32.18298-28.013007C375.908462 672.818709 439.805748 627.891474 510.742357 627.891474L510.742357 627.891474z" p-id="2177" fill="#D5D5D5"></path></svg>